<svg width="28" height="30" viewBox="0 0 28 30" fill="none" xmlns="http://www.w3.org/2000/svg">
<path d="M28 8.70905L26.7593 12.9708L25.9672 12.1805L21.7839 16.1319L18.7806 18.9683L16.3251 21.2874L14.0129 18.9683L12.9229 17.8747L11.5739 16.5208L11.1695 16.1158L8.95471 13.8931L8.10371 14.7154L7.81883 14.9902L6.46975 16.296L5.11698 17.6036L3.72379 18.9505L3.70539 18.9683L1.71118 20.8949L0 22.5504L2.72392 18.9683L6.46975 14.0393L7.81883 12.2661L8.98595 10.7302L11.5739 13.3276L12.6803 14.4389L12.9229 14.6816L16.3747 18.1423L16.6798 17.8534L18.0289 16.5796L18.6281 16.0141L20.3723 14.3658L21.7839 13.0332L24.3718 10.5892L23.5778 9.79899L28 8.70905Z" fill="#2DFF34"/>
<path d="M6.46975 8.70905V14.0393L2.72392 18.9683H2.71289V8.70905H6.46975Z" fill="#FFCE5F"/>
<path d="M27.1545 16.0142C27.1545 23.726 20.6921 30 12.7446 30C8.69002 30 4.91844 28.3463 2.25154 25.5991C1.72587 25.0586 1.24431 24.477 0.810547 23.8562L2.46658 22.2561L5.12983 19.6855L5.87054 18.9683L6.46973 18.3903L7.81881 17.0845L8.11656 16.7973L8.82052 16.1159L8.93446 16.0035L8.9363 16.0052L8.99878 15.9446L11.5738 18.5277L12.6931 19.6516L16.3857 23.3568L18.639 21.2268L20.3851 19.5802L21.0321 18.9684L21.7838 18.2584L24.3827 15.8019L16.3378 26.5018L11.1804 21.3303L8.96566 19.1075L8.11652 19.9281L5.12979 22.8162L3.87444 24.0311C6.11864 26.3698 9.31122 27.7791 12.7446 27.7791C19.4294 27.7791 24.8662 22.5023 24.8662 16.0142H27.1545V16.0142Z" fill="#00B7FF"/>
<path d="M11.5739 5.60332V13.3276L8.98597 10.7302L7.81885 12.2662V5.60332H11.5739Z" fill="#FFCE5F"/>
<path d="M16.6798 3.08618V17.8534L16.3747 18.1424L12.923 14.6816V3.08618H16.6798Z" fill="#FFCE5F"/>
<path d="M21.7839 0V13.0333L20.3724 14.3658L18.6281 16.0142L18.0289 16.5797V0H21.7839Z" fill="#FFCE5F"/>
</svg>
