<?xml version="1.0" encoding="UTF-8"?>
<svg version="1.1" xmlns="http://www.w3.org/2000/svg" width="1536" height="1024">
<path d="M0 0 C506.88 0 1013.76 0 1536 0 C1536 337.92 1536 675.84 1536 1024 C1029.12 1024 522.24 1024 0 1024 C0 686.08 0 348.16 0 0 Z " fill="#18171B" transform="translate(0,0)"/>
<path d="M0 0 C5.61 0 11.22 0 17 0 C17.05425013 2.87525669 17.09379277 5.74947646 17.125 8.625 C17.14175781 9.43324219 17.15851563 10.24148438 17.17578125 11.07421875 C17.21452684 15.83992623 16.72762269 19.49653411 15 24 C14.69545743 25.61902116 14.42448953 27.24472037 14.1875 28.875 C12.89569938 36.46826704 10.3999695 43.69932942 8 51 C7.34 51 6.68 51 6 51 C5.85304688 51.53367187 5.70609375 52.06734375 5.5546875 52.6171875 C1.07451001 67.49961616 -9.5703288 79.79299759 -20.3125 90.6875 C-20.89902344 91.28788086 -21.48554688 91.88826172 -22.08984375 92.50683594 C-25.19014543 95.57351562 -27.70786785 97.75181898 -32 99 C-32 99.66 -32 100.32 -32 101 C-34.1171875 102.5078125 -34.1171875 102.5078125 -36.875 104.125 C-37.77992188 104.66382813 -38.68484375 105.20265625 -39.6171875 105.7578125 C-42 107 -42 107 -44 107 C-44 107.66 -44 108.32 -44 109 C-46.64738916 110.4606285 -47.89448334 111 -51 111 C-51 111.66 -51 112.32 -51 113 C-51.53367187 113.17015625 -52.06734375 113.3403125 -52.6171875 113.515625 C-56.69649236 114.84245772 -60.67575448 116.26105853 -64.625 117.9375 C-78.25828266 123.50210517 -91.6662081 125.23864176 -106.25 125.25 C-107.01943939 125.25067474 -107.78887878 125.25134949 -108.58163452 125.25204468 C-127.56870133 125.2254935 -144.2981169 122.94188428 -161.03515625 113.10546875 C-163.16822568 111.84722532 -163.16822568 111.84722532 -166.3125 110.6875 C-175.55249027 106.88028179 -184.76008831 99.82345659 -192 93 C-192 92.34 -192 91.68 -192 91 C-192.54140625 90.80148437 -193.0828125 90.60296875 -193.640625 90.3984375 C-197.03426779 88.38697372 -199.23216714 85.62525228 -201.75 82.625 C-202.25660156 82.0475 -202.76320313 81.47 -203.28515625 80.875 C-206.0719952 77.58487747 -207 76.45101312 -207 72 C-205.19921875 69.9921875 -205.19921875 69.9921875 -202.6875 67.875 C-201.31464844 66.69550781 -201.31464844 66.69550781 -199.9140625 65.4921875 C-198.95242188 64.66976562 -197.99078125 63.84734375 -197 63 C-195.18252747 61.3387572 -193.37001003 59.672077 -191.5625 58 C-187.98072315 54.73515004 -184.33563409 51.60377618 -180.5625 48.5625 C-175.44038416 44.42822079 -170.60985498 40.04165745 -165.78515625 35.5703125 C-161.57427514 31.68425392 -157.24644843 27.93992369 -152.91015625 24.1953125 C-149.13269252 20.91728997 -145.48949185 17.58919162 -142 14 C-141 13 -140 12 -139 11 C-135.35839901 12.53511823 -133.03556785 14.71996654 -130.26171875 17.5078125 C-129.35873047 18.41273438 -128.45574219 19.31765625 -127.52539062 20.25 C-127.0585083 20.72308594 -126.59162598 21.19617188 -126.1105957 21.68359375 C-124.70765879 23.10458183 -123.29626507 24.51720443 -121.88476562 25.9296875 C-117.97122746 29.86825896 -114.10214038 33.80637884 -110.48828125 38.0234375 C-106.10860937 43.12603079 -101.28568114 47.78200884 -96.5 52.5 C-90.97485433 57.94699651 -85.51049302 63.35047039 -80.55273438 69.32617188 C-78.85485735 71.15646195 -77.03392682 72.55975992 -75 74 C-74.74605469 73.41734375 -74.49210938 72.8346875 -74.23046875 72.234375 C-72.86679667 69.75811967 -71.35774797 68.19479374 -69.3125 66.25 C-66.59920676 63.60990711 -64.02145694 60.94085848 -61.5625 58.0625 C-58.99334729 55.07198284 -56.30682744 52.26883316 -53.5 49.5 C-50.79616607 46.83245914 -48.20744465 44.14540508 -45.75 41.25 C-42.51658398 37.47264483 -39.03277895 33.99343177 -35.5 30.5 C-30.78443193 25.8317944 -26.26573741 21.08778056 -22 16 C-20.85503975 14.66591685 -19.70923964 13.33255394 -18.5625 12 C-17.716875 11.01 -16.87125 10.02 -16 9 C-15.67 9.66 -15.34 10.32 -15 11 C-15.9375 13.125 -15.9375 13.125 -17 15 C-17.66 15 -18.32 15 -19 15 C-19.39940796 16.07846191 -19.39940796 16.07846191 -19.80688477 17.17871094 C-21.01725005 20.04079017 -22.43628112 22.51184701 -24.08984375 25.140625 C-24.7031958 26.11942627 -25.31654785 27.09822754 -25.94848633 28.10668945 C-26.9330481 29.66262817 -26.9330481 29.66262817 -27.9375 31.25 C-28.61772217 32.33047607 -29.29794434 33.41095215 -29.9987793 34.52416992 C-31.99332919 37.68653642 -33.99477308 40.8443951 -36 44 C-36.73814941 45.16233154 -36.73814941 45.16233154 -37.49121094 46.34814453 C-43.69600742 56.08898302 -50.10078028 65.6988269 -56.5 75.3125 C-56.89957916 75.91325348 -57.29915833 76.51400696 -57.71084595 77.13296509 C-58.85792852 78.85649897 -60.00676772 80.57884713 -61.15625 82.30078125 C-61.82462891 83.30278564 -62.49300781 84.30479004 -63.18164062 85.3371582 C-63.78169922 86.215896 -64.38175781 87.09463379 -65 88 C-65.50998535 88.76006348 -66.0199707 89.52012695 -66.54541016 90.30322266 C-68 92 -68 92 -71.1171875 92.84765625 C-77.16893151 93.19364993 -81.77978741 93.38052137 -86.6328125 89.37109375 C-90.02629149 86.1434904 -93.02762988 82.61233567 -96 79 C-102.06818474 71.73885627 -108.77503186 65.14264559 -115.5 58.5 C-128.52626134 45.63319741 -128.52626134 45.63319741 -133.61523438 39.60351562 C-135.00888081 37.98971629 -136.47476417 36.4890821 -138 35 C-141.25207092 36.41738489 -143.31361067 38.12526412 -145.75 40.6875 C-148.94585011 43.96559625 -152.23566267 47.01535846 -155.7109375 49.9921875 C-157.53889115 51.59554616 -159.32561853 53.22304172 -161.1015625 54.8828125 C-161.64200195 55.38643311 -162.18244141 55.89005371 -162.73925781 56.40893555 C-163.81784627 57.41685231 -164.89281409 58.42865955 -165.96386719 59.44458008 C-169.77871145 63 -169.77871145 63 -172 63 C-172 63.66 -172 64.32 -172 65 C-174.74767157 67.38554023 -177.62058929 69.57943512 -180.49609375 71.80859375 C-183.22123332 73.82099291 -183.22123332 73.82099291 -184 77 C-183.42378906 77.25394531 -182.84757812 77.50789062 -182.25390625 77.76953125 C-179.74912118 79.13696158 -178.00330695 80.7220874 -175.9375 82.6875 C-171.01704004 87.15401308 -165.70739712 90.62379325 -160 94 C-158.34871094 94.99580078 -158.34871094 94.99580078 -156.6640625 96.01171875 C-152.91569852 98.13779324 -149.06109978 99.64379188 -145 101.0625 C-144.34644531 101.30548828 -143.69289063 101.54847656 -143.01953125 101.79882812 C-131.01892252 106.04294585 -119.05657337 107.50515662 -106.4284668 107.39111328 C-104.30257871 107.37492445 -102.17856826 107.39112985 -100.05273438 107.41015625 C-88.08173126 107.43052601 -77.61270205 104.92820438 -66.5 100.5625 C-65.72914063 100.27568359 -64.95828125 99.98886719 -64.1640625 99.69335938 C-59.87502249 98.02746062 -57.12794128 96.4692979 -54 93 C-52.50847973 92.0561681 -50.98499142 91.16145329 -49.4375 90.3125 C-36.9609065 82.99167528 -26.69733007 72.97736974 -19.19140625 60.6171875 C-18.60166016 59.81667969 -18.60166016 59.81667969 -18 59 C-17.34 59 -16.68 59 -16 59 C-15.62875 57.7625 -15.62875 57.7625 -15.25 56.5 C-14.30564576 53.85580812 -13.32579039 51.54551905 -12.0625 49.0625 C-8.28570245 41.7942553 -8.28570245 41.7942553 -6.5 33.875 C-6 30 -6 30 -4.5390625 27.6015625 C0.01507401 19.90345358 -0.56652226 8.68667465 0 0 Z " fill="#029EF6" transform="translate(464,511)"/>
<path d="M0 0 C67.85714286 0 67.85714286 0 79.5 10.1875 C80.325 11.115625 81.15 12.04375 82 13 C82.58007812 13.6496875 83.16015625 14.299375 83.7578125 14.96875 C92.53430117 25.39771561 92.70259376 35.94453058 92 49 C91.05622554 59.51634395 84.55834785 69.19183584 76.75 76.0625 C61.92628677 86.38044428 40.86155186 83.28102586 24 83 C24 95.21 24 107.42 24 120 C16.08 120 8.16 120 0 120 C0 80.4 0 40.8 0 0 Z " fill="#FBFBFB" transform="translate(1032,467)"/>
<path d="M0 0 C7.98007355 5.83120419 15.61784614 11.701649 19.08984375 21.2578125 C19.34910645 21.90983643 19.60836914 22.56186035 19.87548828 23.23364258 C22.09640379 29.19501101 22.51685354 34.49479195 22.40234375 40.8203125 C22.40556641 41.71427734 22.40878906 42.60824219 22.41210938 43.52929688 C22.31199636 55.97061403 17.9954094 68.42374433 9.46484375 77.6953125 C-3.03133169 89.01997149 -16.45635626 90.01868925 -32.45117188 89.44580078 C-39.84764688 88.8803435 -46.09064698 85.72394752 -51.91015625 81.2578125 C-53.39515625 80.175 -53.39515625 80.175 -54.91015625 79.0703125 C-62.52219242 72.55425013 -67.72168428 62.11647048 -68.91015625 52.2578125 C-69.09733047 48.67355486 -69.14075804 45.09648212 -69.16015625 41.5078125 C-69.18078125 40.569375 -69.20140625 39.6309375 -69.22265625 38.6640625 C-69.27811539 28.6259579 -66.84383836 20.37670333 -60.91015625 12.2578125 C-60.32363281 11.45214844 -59.73710938 10.64648438 -59.1328125 9.81640625 C-56.59546344 6.89555627 -53.95202444 4.85343573 -50.78515625 2.6328125 C-49.73070312 1.87742187 -48.67625 1.12203125 -47.58984375 0.34375 C-34.21313408 -7.92119911 -13.35227956 -7.99518315 0 0 Z " fill="#FAFAFA" transform="translate(798.91015625,500.7421875)"/>
<path d="M0 0 C0.87140625 0.37511719 1.7428125 0.75023437 2.640625 1.13671875 C7.63406744 3.45093111 11.37547842 5.77139148 15 10 C15.51433594 10.55945313 16.02867188 11.11890625 16.55859375 11.6953125 C19.52269872 14.97928492 21.64605216 17.7298568 23 22 C23.5053125 23.12535156 24.010625 24.25070312 24.53125 25.41015625 C26.58349664 30.87185045 26.40172309 36.23261968 26.3125 42 C26.31572266 43.0415625 26.31894531 44.083125 26.32226562 45.15625 C26.22983198 58.46669518 22.12462391 70.47534421 12.8515625 80.3203125 C3.15066107 89.12070831 -7.71966108 91.17858771 -20.4375 91.1875 C-21.35337891 91.19974609 -22.26925781 91.21199219 -23.21289062 91.22460938 C-28.54633415 91.23609561 -32.95645496 90.75518142 -38 89 C-38 88.34 -38 87.68 -38 87 C-38.66 86.95875 -39.32 86.9175 -40 86.875 C-47.51334647 84.68360728 -53.0825878 78.58837506 -57 72 C-57 71.34 -57 70.68 -57 70 C-57.66 70 -58.32 70 -59 70 C-63.21705194 60.73754663 -64.51451428 52.33572953 -64.5625 42.1875 C-64.57667969 41.13892822 -64.59085938 40.09035645 -64.60546875 39.01000977 C-64.51565955 31.90105051 -63.09855884 26.38068682 -60 20 C-59.53364136 19.01592163 -59.53364136 19.01592163 -59.05786133 18.01196289 C-54.75990293 9.30304447 -46.51388338 2.76616966 -37.71875 -0.96875 C-26.28826438 -4.77891187 -11.08342445 -4.93251691 0 0 Z " fill="#FAFAFA" transform="translate(1283,499)"/>
<path d="M0 0 C1.13687256 0.00765381 2.27374512 0.01530762 3.44506836 0.02319336 C16.73156439 0.37137297 28.72999665 3.91964404 38.3125 13.625 C44.67101899 20.74316507 47.48950521 27.10605294 47.3125 36.625 C43.41767784 36.85782073 39.52464146 36.99956639 35.625 37.125 C34.52220703 37.19203125 33.41941406 37.2590625 32.28320312 37.328125 C29.10883283 37.40484694 26.39948136 37.38061253 23.3125 36.625 C21.36510586 34.75044305 20.37044308 33.09137069 19.26025391 30.63818359 C17.28171706 26.43544923 13.63506998 24.24219932 9.5 22.3125 C2.88324593 20.88535697 -3.34533028 21.11206483 -9.6875 23.625 C-12.53550947 25.5601035 -15.11936915 27.4887383 -16.6875 30.625 C-16.75815617 32.66555005 -16.77171976 34.70834257 -16.75 36.75 C-16.74097656 37.84570312 -16.73195313 38.94140625 -16.72265625 40.0703125 C-16.71105469 40.91335938 -16.69945312 41.75640625 -16.6875 42.625 C-16.11 42.893125 -15.5325 43.16125 -14.9375 43.4375 C-12.6875 44.625 -12.6875 44.625 -10.765625 46.14453125 C-8.37430251 47.84812377 -6.25933735 48.53278179 -3.4375 49.3125 C-2.09945312 49.68955078 -2.09945312 49.68955078 -0.734375 50.07421875 C-0.05890625 50.25597656 0.6165625 50.43773437 1.3125 50.625 C1.3125 51.285 1.3125 51.945 1.3125 52.625 C2.30830078 52.71587891 2.30830078 52.71587891 3.32421875 52.80859375 C12.09457381 53.64081722 12.09457381 53.64081722 16.3125 54.625 C16.3125 55.285 16.3125 55.945 16.3125 56.625 C17.22 56.66625 18.1275 56.7075 19.0625 56.75 C28.04725655 58.0621754 37.48028245 63.72624266 43.3125 70.625 C48.85728362 79.59368751 50.75777289 88.25248814 48.6875 98.6875 C46.15658546 107.36242776 39.69397894 114.6552914 32.3125 119.625 C21.70648457 125.12376126 11.57097265 126.79991262 -0.25 126.75 C-1.16974609 126.75386719 -2.08949219 126.75773438 -3.03710938 126.76171875 C-7.70079751 126.75501323 -12.10079728 126.5866049 -16.6875 125.625 C-16.6875 124.965 -16.6875 124.305 -16.6875 123.625 C-17.33976563 123.52703125 -17.99203125 123.4290625 -18.6640625 123.328125 C-29.36365962 121.49751546 -35.11359624 116.07359115 -41.6875 107.625 C-44.70406094 102.84465753 -45.84370261 98.45643763 -46.28125 92.83984375 C-46.36052734 91.86007568 -46.43980469 90.88030762 -46.52148438 89.87084961 C-46.57626953 89.12971924 -46.63105469 88.38858887 -46.6875 87.625 C-25.82809226 85.98312363 -25.82809226 85.98312363 -21.10546875 89.60546875 C-19.75 92.1875 -19.75 92.1875 -18.73046875 94.9375 C-17.03071332 99.31739413 -13.54836911 102.06932349 -9.6875 104.625 C-2.46710219 107.18128991 6.38476501 106.25234611 13.40625 103.54296875 C16.84524727 101.88689425 19.34088351 99.92048865 21.625 96.875 C22.68416566 93.40863967 22.97912095 90.17085612 22.3125 86.625 C16.18812012 78.12989242 6.57386798 76.04308083 -3.17578125 74.296875 C-7.2986236 73.50807758 -10.87140499 72.32697837 -14.6875 70.625 C-15.55890625 70.26535156 -16.4303125 69.90570312 -17.328125 69.53515625 C-28.02350316 64.9618593 -37.45631395 58.36269767 -42.6875 47.625 C-45.22639349 37.93104304 -44.31517311 27.32509012 -39.5390625 18.50390625 C-30.43273576 5.00232932 -15.62381684 -0.15666755 0 0 Z " fill="#FAFAFA" transform="translate(605.6875,463.375)"/>
<path d="M0 0 C7.92 0 15.84 0 24 0 C24.33 21.78 24.66 43.56 25 66 C32.29079764 58.06807729 32.29079764 58.06807729 39.5 50.0625 C40.06332031 49.45535156 40.62664063 48.84820313 41.20703125 48.22265625 C43.17292943 45.91353581 43.17292943 45.91353581 44.88671875 42.62109375 C47.35481308 38.54662228 49.64931952 35.17626671 54 33 C63.1981428 31.3509361 72.7405786 32.2026688 82 33 C82 35 82 35 80.0625 37 C79.60488281 37.44085938 79.14726563 37.88171875 78.67578125 38.3359375 C72.41417436 44.55375693 66.81847907 51.38555416 61.28515625 58.24609375 C58.20641055 61.95637703 54.94638873 65.48462742 51.65234375 69.00390625 C49.78744658 70.82489585 49.78744658 70.82489585 50 73 C50.9805006 74.01912638 51.98505142 75.01517546 53 76 C54.15174886 77.50067771 55.27296479 79.02494433 56.375 80.5625 C57.07753906 81.53832031 57.78007813 82.51414062 58.50390625 83.51953125 C58.89723145 84.06818848 59.29055664 84.6168457 59.69580078 85.18212891 C61.67512669 87.94103207 63.66261798 90.6940239 65.65014648 93.44702148 C66.76121412 94.98626381 67.87139881 96.52614383 68.98071289 98.06665039 C71.72311695 101.87037241 74.48118733 105.66034503 77.28125 109.421875 C77.79260498 110.11055664 78.30395996 110.79923828 78.83081055 111.50878906 C79.79955258 112.81066087 80.77221821 114.10962462 81.74926758 115.40527344 C85 119.7786092 85 119.7786092 85 122 C60.25266187 124.54219989 60.25266187 124.54219989 53.48095703 120.49414062 C49.16549222 116.37697945 46.43447985 111.3904873 44 106 C42.60566172 103.06983033 41.30704927 101.26756432 39 99 C37.15426806 96.42666326 35.39081949 93.80573214 33.62109375 91.1796875 C32.18253668 88.90343029 32.18253668 88.90343029 30 88 C29.731875 88.598125 29.46375 89.19625 29.1875 89.8125 C28 92 28 92 26.45776367 93.26293945 C24.34928037 95.77539276 24.56741531 97.73597225 24.48828125 100.98046875 C24.45283203 102.14384766 24.41738281 103.30722656 24.38085938 104.50585938 C24.35830078 105.72080078 24.33574219 106.93574219 24.3125 108.1875 C24.27833984 109.41404297 24.24417969 110.64058594 24.20898438 111.90429688 C24.12641224 114.93587377 24.0615327 117.96792309 24 121 C16.08 121 8.16 121 0 121 C0 81.07 0 41.14 0 0 Z " fill="#FBFBFB" transform="translate(937,465)"/>
<path d="M0 0 C-0.44472656 1.56234375 -0.44472656 1.56234375 -0.8984375 3.15625 C-2.40571703 9.18536812 -2.96078741 15.33231169 -3.625 21.5 C-3.7590625 22.70398438 -3.893125 23.90796875 -4.03125 25.1484375 C-4.35902997 28.09845726 -4.6818102 31.04893308 -5 34 C-7.59586265 32.80482157 -9.03448554 31.96228144 -11 29.8125 C-12.79748524 27.79010189 -12.79748524 27.79010189 -15 27.9375 C-17.74632911 29.39648734 -19.12256731 31.5593375 -21 34 C-21.66 34 -22.32 34 -23 34 C-23.26425781 34.59296875 -23.52851563 35.1859375 -23.80078125 35.796875 C-25.04370425 38.08029054 -26.30401646 39.47426723 -28.1875 41.25 C-30.70126739 43.6283654 -33.00328439 46.12286214 -35.26953125 48.734375 C-39.50997181 53.61891171 -43.94695713 58.30482897 -48.39453125 63 C-54.41711995 69.38419341 -60.19453188 75.94561721 -65.73828125 82.75 C-67 84 -67 84 -69 84 C-69.21269531 84.54140625 -69.42539062 85.0828125 -69.64453125 85.640625 C-71.49018439 88.85323161 -74.03961881 91.20552958 -76.6875 93.75 C-80.77934366 97.75420043 -84.68522186 101.81321016 -88.3984375 106.17578125 C-91.11275711 109.26745749 -94.05209608 112.13273782 -97 115 C-100.78861388 113.27503859 -102.45742349 111.31305424 -105 108 C-106.65037553 106.31437373 -108.31873024 104.6545161 -110 103 C-113.29535234 99.73286702 -116.58530961 96.46033253 -119.875 93.1875 C-120.74769531 92.32318359 -121.62039063 91.45886719 -122.51953125 90.56835938 C-126.97111364 86.13351226 -131.25957 81.64199694 -135.35107422 76.8737793 C-138.13356606 73.71185675 -141.12660772 70.76805811 -144.125 67.8125 C-144.71925781 67.22275391 -145.31351562 66.63300781 -145.92578125 66.02539062 C-146.50972656 65.44595703 -147.09367187 64.86652344 -147.6953125 64.26953125 C-148.53690918 63.43349365 -148.53690918 63.43349365 -149.39550781 62.58056641 C-150.85079667 61.14697845 -152.32664151 59.73433227 -153.8046875 58.32421875 C-155.76601436 56.24772501 -156.9321193 54.62116172 -158 52 C-164.5929837 57.65681985 -170.95728393 63.55084477 -177.32861328 69.45361328 C-185.16096692 76.70019931 -193.05860487 83.87310693 -201 91 C-201.845625 91.763125 -202.69125 92.52625 -203.5625 93.3125 C-208.10957134 97.41595462 -212.6846303 101.48012304 -217.3125 105.4921875 C-218.72011528 106.74991782 -220.05766755 108.08550091 -221.375 109.4375 C-223 111 -223 111 -225 111 C-223.368284 107.14656899 -220.78493304 104.2399195 -218.0625 101.125 C-214.13677242 96.56181088 -210.32061295 91.93900236 -206.625 87.1875 C-200.53207632 79.36379453 -194.27405475 71.67875637 -188 64 C-187.23042969 63.05640625 -186.46085937 62.1128125 -185.66796875 61.140625 C-181.04319259 55.47763378 -176.39688933 49.83234663 -171.75 44.1875 C-171.15904541 43.46957275 -170.56809082 42.75164551 -169.95922852 42.01196289 C-166.65222742 37.99722144 -163.33415985 33.99221772 -160 30 C-155.26214557 30.86298809 -153.08036145 33.83066816 -150.0078125 37.3046875 C-144.24647252 43.64572185 -138.31717063 49.77921315 -132.2421875 55.8203125 C-131.3981134 56.66100281 -130.55403931 57.50169312 -129.68438721 58.36785889 C-127.08331597 60.9556534 -124.4795917 63.54074911 -121.875 66.125 C-118.3903124 69.58301907 -114.9090244 73.04441078 -111.4296875 76.5078125 C-110.24691727 77.67813522 -110.24691727 77.67813522 -109.04025269 78.87210083 C-106.07959445 81.81945912 -103.24931006 84.68366607 -100.66064453 87.96826172 C-99.08135797 90.2697771 -99.08135797 90.2697771 -96 91 C-95.75016357 90.4234668 -95.50032715 89.84693359 -95.24291992 89.25292969 C-93.82641968 86.68536649 -92.21078033 85.00010232 -90.11328125 82.953125 C-88.9521582 81.8084375 -88.9521582 81.8084375 -87.76757812 80.640625 C-86.95740234 79.85171875 -86.14722656 79.0628125 -85.3125 78.25 C-80.20783644 73.257664 -75.22732969 68.25146881 -70.57543945 62.83154297 C-68.26037289 60.14013908 -65.85254158 57.53899855 -63.4375 54.9375 C-62.68593628 54.12502808 -62.68593628 54.12502808 -61.91918945 53.29614258 C-59.07516908 50.22519408 -56.22035514 47.16452558 -53.359375 44.109375 C-45.35842192 35.58937514 -45.35842192 35.58937514 -37.59765625 26.8515625 C-34.44290993 23.19545062 -31.21283188 19.60504772 -28 16 C-29.37154504 13.04590299 -30.98863724 10.55991624 -33 8 C-26.03422681 5.79162671 -19.04788146 3.67987088 -12 1.75 C-10.783125 1.41484375 -9.56625 1.0796875 -8.3125 0.734375 C-5.39454603 0.08747011 -2.96870684 -0.15743142 0 0 Z " fill="#3CCC5D" transform="translate(486,451)"/>
<path d="M0 0 C0.8357959 0.00563965 1.6715918 0.0112793 2.53271484 0.01708984 C15.2478314 0.26268686 25.834391 2.38658566 35.21875 11.45703125 C42.07791295 18.7511049 44 22.9638325 44 33.3125 C36.08 33.3125 28.16 33.3125 20 33.3125 C19.01 31.0025 18.02 28.6925 17 26.3125 C11.69022029 21.39124076 8.1320362 20.96340564 1.05078125 21.03125 C-4.40491565 21.53420797 -7.42585692 23.69463073 -11.25 27.625 C-15.40596267 34.00737124 -16.5310389 39.12243153 -16.4375 46.625 C-16.43065186 47.46369629 -16.42380371 48.30239258 -16.41674805 49.16650391 C-16.20952608 57.16822095 -14.68401961 63.09167647 -9.5 69.3125 C-4.40238579 73.39059137 -0.44766011 73.81758869 6.015625 73.68359375 C10.80281055 73.08832853 12.61045165 71.7741664 16 68.3125 C16.99 65.6725 17.98 63.0325 19 60.3125 C27.25 60.3125 35.5 60.3125 44 60.3125 C43.67 63.2825 43.34 66.2525 43 69.3125 C42.34 69.3125 41.68 69.3125 41 69.3125 C40.95875 69.9725 40.9175 70.6325 40.875 71.3125 C38.49972084 79.45631428 30.94983242 86.58098713 23.6640625 90.6015625 C12.71861459 95.65610489 -2.02995525 96.32323197 -13.6875 93.1875 C-24.90623392 88.91650831 -33.87769324 80.38116513 -39 69.5625 C-42.25669919 62.00876715 -42.18254805 54.59644639 -42.1875 46.5 C-42.19974609 45.45779297 -42.21199219 44.41558594 -42.22460938 43.34179688 C-42.24797154 30.93648846 -39.93140368 22.83704405 -31.5 13.5625 C-30.675 12.82 -29.85 12.0775 -29 11.3125 C-28.071875 10.466875 -27.14375 9.62125 -26.1875 8.75 C-18.51437283 2.47736648 -9.77256885 -0.06880706 0 0 Z " fill="#F9F9FA" transform="translate(876,495.6875)"/>
<path d="M0 0 C8.25 0 16.5 0 25 0 C25 7.92 25 15.84 25 24 C30.94 24 36.88 24 43 24 C43 29.94 43 35.88 43 42 C37.06 42 31.12 42 25 42 C25.0935361 48.6205306 25.1996313 55.24069557 25.31738281 61.86083984 C25.35567157 64.11306236 25.39052461 66.365346 25.421875 68.61767578 C25.46752737 71.85471447 25.52552215 75.09133236 25.5859375 78.328125 C25.60326431 79.83925873 25.60326431 79.83925873 25.62094116 81.38092041 C25.64081085 82.32159363 25.66068054 83.26226685 25.68115234 84.23144531 C25.69447601 85.05751282 25.70779968 85.88358032 25.7215271 86.73468018 C25.92082317 89.39955141 25.92082317 89.39955141 28 93 C32.29 93 36.58 93 41 93 C43.12936719 99.54019921 44.03913702 106.20240549 45 113 C36.10194983 116.81345007 24.83488655 117.89253757 15.4375 114.9375 C8.43445916 110.99033153 3.76241923 105.57437531 1 98 C0.18497734 94.52314137 -0.12237709 91.3179677 -0.11352539 87.75073242 C-0.11344986 86.73005173 -0.11337433 85.70937103 -0.11329651 84.65776062 C-0.10813522 83.5680043 -0.10297394 82.47824799 -0.09765625 81.35546875 C-0.0962413 80.2305452 -0.09482635 79.10562164 -0.09336853 77.9466095 C-0.08777931 74.36021241 -0.07522872 70.77387816 -0.0625 67.1875 C-0.05748361 64.75325611 -0.05292094 62.31901124 -0.04882812 59.88476562 C-0.03781339 53.92315294 -0.02055611 47.96158712 0 42 C-4.29 42 -8.58 42 -13 42 C-13 36.06 -13 30.12 -13 24 C-8.71 24 -4.42 24 0 24 C0 16.08 0 8.16 0 0 Z " fill="#F9F9FA" transform="translate(1330,474)"/>
<path d="M0 0 C8.25 0 16.5 0 25 0 C25 7.92 25 15.84 25 24 C30.61 24 36.22 24 42 24 C42 29.94 42 35.88 42 42 C36.39 42 30.78 42 25 42 C25.09344022 48.78125305 25.1995134 55.56214507 25.31738281 62.34301758 C25.35570416 64.65057944 25.39055141 66.95820168 25.421875 69.26586914 C25.46745682 72.57980963 25.52546288 75.89333327 25.5859375 79.20703125 C25.59748871 80.2414888 25.60903992 81.27594635 25.62094116 82.3417511 C25.64081085 83.3025206 25.66068054 84.2632901 25.68115234 85.25317383 C25.69447601 86.09922684 25.70779968 86.94527985 25.7215271 87.81697083 C25.87258289 90.29091009 25.87258289 90.29091009 28 93 C31.11610554 93.58592634 31.11610554 93.58592634 34.625 93.6875 C35.81351563 93.75324219 37.00203125 93.81898438 38.2265625 93.88671875 C39.14179687 93.92410156 40.05703125 93.96148438 41 94 C42.90420731 100.80074041 44.40850553 106.91923749 44 114 C21.04842319 118.55775993 21.04842319 118.55775993 12 113 C7.90007578 109.65227962 4.22888387 105.8511002 2 101 C2 99.68 2 98.36 2 97 C1.34 97 0.68 97 0 97 C0 78.85 0 60.7 0 42 C-4.29 42 -8.58 42 -13 42 C-13 36.06 -13 30.12 -13 24 C-8.71 24 -4.42 24 0 24 C0 16.08 0 8.16 0 0 Z " fill="#F8F8F8" transform="translate(675,474)"/>
<path d="M0 0 C9.57 0 19.14 0 29 0 C29.20361419 14.16945949 29.36860823 28.33794195 29.46630955 42.50853539 C29.51320984 49.08908974 29.57678898 55.66858837 29.67895508 62.24853516 C29.77699665 68.60286402 29.83061146 74.95617977 29.85389519 81.31120682 C29.87048007 83.73134937 29.90286798 86.15143862 29.95157051 88.57114792 C30.36412042 109.92406918 30.36412042 109.92406918 24.6940918 116.29394531 C23.16346526 117.57126807 21.59965777 118.8102664 20 120 C18.645326 121.42045858 17.31287294 122.86284822 16.015625 124.3359375 C14.76142586 125.68323183 13.5062311 127.02960009 12.25 128.375 C11.61707031 129.05949219 10.98414063 129.74398437 10.33203125 130.44921875 C9.71199219 131.11308594 9.09195312 131.77695312 8.453125 132.4609375 C7.63569824 133.33951416 7.63569824 133.33951416 6.80175781 134.23583984 C4.67827172 136.31501471 2.32066029 138.14347176 0 140 C0 93.8 0 47.6 0 0 Z " fill="#FDCF50" transform="translate(403,379)"/>
<path d="M0 0 C9.57 0 19.14 0 29 0 C29 42.57 29 85.14 29 129 C27 129 27 129 24.9375 127.125 C22.47050725 124.56395768 20.11759339 121.90269625 17.75 119.25 C10.36402837 110.78951973 10.36402837 110.78951973 1.9006958 103.48236084 C-1.03638599 99.64645147 -0.52682724 95.97767205 -0.45410156 91.27441406 C-0.45468567 90.28871933 -0.45526978 89.3030246 -0.45587158 88.28746033 C-0.45308515 85.0298235 -0.4219659 81.77310196 -0.390625 78.515625 C-0.38316462 76.25690206 -0.37747073 73.99817264 -0.37347412 71.73944092 C-0.35820193 65.79463835 -0.31890597 59.85022672 -0.2746582 53.90557861 C-0.23373997 47.83944996 -0.21547044 41.77325813 -0.1953125 35.70703125 C-0.15241356 23.8044881 -0.08205027 11.90233772 0 0 Z " fill="#FBCF52" transform="translate(360,406)"/>
<path d="M0 0 C8.25 0 16.5 0 25 0 C25 40.26 25 80.52 25 122 C16.75 122 8.5 122 0 122 C0 81.74 0 41.48 0 0 Z " fill="#F7F7F7" transform="translate(1179,465)"/>
<path d="M0 0 C7.92 0 15.84 0 24 0 C24 29.7 24 59.4 24 90 C16.08 90 8.16 90 0 90 C0 60.3 0 30.6 0 0 Z " fill="#FBFBFB" transform="translate(1137,497)"/>
<path d="M0 0 C5.7901587 4.34498043 9.26517146 8.36424482 10.39453125 15.609375 C12.0398297 37.49285376 12.0398297 37.49285376 5.39453125 45.609375 C0.63081949 50.54687023 -2.79297249 52.78744942 -9.73046875 53.109375 C-14.45211662 53.05725968 -17.40726119 52.75245243 -21.10546875 49.734375 C-22.94921875 47.75390625 -22.94921875 47.75390625 -24.60546875 45.609375 C-25.13140625 44.95324219 -25.65734375 44.29710937 -26.19921875 43.62109375 C-29.88332807 37.85955612 -30.05717038 32.0695415 -30.10546875 25.421875 C-30.11513672 24.138573 -30.11513672 24.138573 -30.125 22.8293457 C-29.95192411 14.26458542 -27.27054707 8.57215149 -21.4140625 2.27734375 C-16.05201904 -2.66778056 -6.36963058 -3.39968289 0 0 Z " fill="#1B1B1F" transform="translate(784.60546875,517.390625)"/>
<path d="M0 0 C9.57 0 19.14 0 29 0 C29.25473785 6.01593027 29.47277723 12.01272444 29.60424805 18.02978516 C29.65909263 20.06884565 29.73380459 22.10748328 29.82983398 24.14501953 C30.36810537 35.87185186 30.44583554 44.65424328 22.30409241 53.68156433 C20.89505593 55.14617061 19.44874721 56.57466254 18 58 C16.88236411 59.3080501 15.77672842 60.62669404 14.6953125 61.96484375 C13.84710938 62.94582031 12.99890625 63.92679688 12.125 64.9375 C9.23637627 68.29402458 6.44217048 71.65465278 3.9375 75.3125 C2.9784375 76.6428125 2.9784375 76.6428125 2 78 C1.34 78 0.68 78 0 78 C0 52.26 0 26.52 0 0 Z " fill="#FDCF50" transform="translate(272,460)"/>
<path d="M0 0 C6.62676126 3.32453679 10.06923338 8.22332513 12.3828125 15.1640625 C12.50646646 18.07136848 12.56796221 20.94425708 12.5703125 23.8515625 C12.58255859 24.62951172 12.59480469 25.40746094 12.60742188 26.20898438 C12.6302893 35.34833224 10.82327645 42.42542892 4.3828125 49.1640625 C-0.1895394 53.23345569 -4.95662442 53.84795587 -10.96484375 53.6171875 C-16.31271567 52.7035599 -19.22248598 49.55876402 -22.9296875 45.8515625 C-26.99239459 39.38132528 -26.95626679 32.07436765 -26.9296875 24.6640625 C-26.94580078 23.76558594 -26.96191406 22.86710938 -26.97851562 21.94140625 C-26.98335163 15.29674214 -26.34397309 9.36454359 -21.86328125 4.10546875 C-21.26644531 3.65042969 -20.66960937 3.19539062 -20.0546875 2.7265625 C-19.45527344 2.25347656 -18.85585937 1.78039062 -18.23828125 1.29296875 C-13.0644217 -2.31003224 -5.83486443 -1.86367312 0 0 Z " fill="#1B1B1E" transform="translate(1271.6171875,516.8359375)"/>
<path d="M0 0 C10.23 0 20.46 0 31 0 C31 19.8 31 39.6 31 60 C27.61139945 57.28911956 25.23365727 55.31501516 22.5625 52.125 C19.52577659 48.56883706 16.34663427 45.26500905 13 42 C9.32384179 43.47370219 7.66832407 45.44263399 5.375 48.625 C4.29645027 50.11801426 3.18083049 51.58649355 2 53 C1.34 53 0.68 53 0 53 C0 35.51 0 18.02 0 0 Z " fill="#F4C951" transform="translate(315,432)"/>
<path d="M0 0 C4.599375 -0.12375 9.19875 -0.2475 13.9375 -0.375 C15.36956787 -0.42962402 16.80163574 -0.48424805 18.27709961 -0.54052734 C25.54164321 -0.63477336 30.50146016 -0.08234977 36.46313477 4.21240234 C38.35933686 6.417961 38.65975161 8.1474983 39 11 C39.66 11 40.32 11 41 11 C41.7973906 28.01099948 41.7973906 28.01099948 37 34 C32.18904815 38.45893098 28.93664718 40.25272181 22.36328125 40.1953125 C20.60818237 40.18781982 20.60818237 40.18781982 18.81762695 40.18017578 C17.33093506 40.16196777 15.84424316 40.14375977 14.3125 40.125 C9.589375 40.08375 4.86625 40.0425 0 40 C0 26.8 0 13.6 0 0 Z " fill="#1A1A1D" transform="translate(1057,489)"/>
<path d="M0 0 C3.02707861 1.67742573 5.81372143 3.4914745 7.96484375 6.20703125 C8.89662256 10.74313274 9.00163694 15.33558693 6.72265625 19.44921875 C3.72546597 23.0428648 1.52644665 24.93808499 -3.3046875 25.4453125 C-9.08550519 25.61403068 -12.55372202 25.25125238 -17.03515625 21.20703125 C-20.17487082 17.54403092 -20.61321761 14.11137192 -20.45703125 9.42578125 C-19.72185963 5.55932312 -17.89517825 3.87205175 -15.03515625 1.20703125 C-10.37610745 -1.57691783 -5.09077243 -1.98354473 0 0 Z " fill="#FAFAFA" transform="translate(1154.03515625,460.79296875)"/>
<path d="M0 0 C9.57 0 19.14 0 29 0 C29 36.3 29 72.6 29 110 C28.01 110.495 28.01 110.495 27 111 C27 76.02 27 41.04 27 5 C26.34 4.67 25.68 4.34 25 4 C25.66 4 26.32 4 27 4 C27 3.34 27 2.68 27 2 C18.75 2 10.5 2 2 2 C2.04600342 6.10937012 2.09200684 10.21874023 2.1394043 14.45263672 C2.28886758 27.99929164 2.42198797 41.54606524 2.54658794 55.09296989 C2.62256736 63.30997168 2.70420845 71.52684509 2.79907227 79.74365234 C2.88171875 86.90346638 2.95385036 94.06329491 3.01323253 101.22334111 C3.04506037 105.01632832 3.08223612 108.80909648 3.13199425 112.60189438 C3.17862513 116.16896407 3.21123705 119.7358824 3.2329216 123.30318832 C3.24841028 125.2423738 3.27892175 127.18142087 3.30979919 129.12042236 C3.31408936 130.26749664 3.31837952 131.41457092 3.32279968 132.59640503 C3.33800927 134.0980058 3.33800927 134.0980058 3.35352612 135.62994194 C3.17853069 136.80312068 3.17853069 136.80312068 3 138 C1.515 138.99 1.515 138.99 0 140 C0 93.8 0 47.6 0 0 Z " fill="#EDC960" transform="translate(403,379)"/>
<path d="M0 0 C0.33 0 0.66 0 1 0 C1.02333692 17.04573514 1.04098308 34.09146531 1.05181217 51.13721275 C1.05697344 59.05144153 1.06401293 66.9656604 1.07543945 74.87988281 C1.08539145 81.77609057 1.09185466 88.67229115 1.09408849 95.56850588 C1.09539472 99.22163762 1.09847505 102.87474882 1.10573006 106.52787399 C1.11375414 110.60111155 1.1139908 114.67431316 1.11352539 118.74755859 C1.11712067 119.96531479 1.12071594 121.18307098 1.12442017 122.43772888 C1.1230455 123.54273239 1.12167084 124.6477359 1.12025452 125.78622437 C1.12117631 126.75041983 1.1220981 127.71461529 1.12304783 128.70802879 C1 131 1 131 0 133 C0.66 133.33 1.32 133.66 2 134 C1.67 134.66 1.34 135.32 1 136 C-3.3433488 135.54070335 -5.03756984 133.06180135 -7.8125 129.875 C-12.02555078 125.12519706 -16.39323305 120.55926968 -20.90234375 116.08984375 C-21.68125725 115.31734283 -21.68125725 115.31734283 -22.47590637 114.52923584 C-24.59742291 112.42860797 -26.72135192 110.33057492 -28.85366821 108.24090576 C-30.37005427 106.75451312 -31.88062365 105.26240509 -33.390625 103.76953125 C-34.27782227 102.89917236 -35.16501953 102.02881348 -36.07910156 101.13208008 C-38 99 -38 99 -38 97 C-35.43166279 98.18538641 -33.2768348 99.5017881 -30.9375 101.125 C-28.15935564 103.26901773 -28.15935564 103.26901773 -25 103 C-23.52734375 104.3984375 -23.52734375 104.3984375 -21.9375 106.375 C-16.79394482 112.52324112 -11.057015 118.08669083 -5.2578125 123.61328125 C-3 126 -3 126 -2 129 C-1.34 129 -0.68 129 0 129 C0 86.43 0 43.86 0 0 Z " fill="#312F15" transform="translate(389,406)"/>
<path d="M0 0 C9.57 0 19.14 0 29 0 C29 14.52 29 29.04 29 44 C28.67 44 28.34 44 28 44 C28 30.14 28 16.28 28 2 C19.42 2 10.84 2 2 2 C2.03552979 4.23120605 2.07105957 6.46241211 2.10766602 8.76123047 C2.22412012 16.12127899 2.33493987 23.4814045 2.4429636 30.84158134 C2.50865228 35.30540492 2.57625692 39.76918255 2.64819336 44.23291016 C2.71750578 48.5381406 2.78184661 52.84341891 2.84269524 57.14877701 C2.86682871 58.7938928 2.89277396 60.43898301 2.92053413 62.0840416 C2.9590177 64.38264718 2.99114215 66.68125818 3.02172852 68.97998047 C3.04171402 70.2901413 3.06169952 71.60030212 3.08229065 72.95016479 C3 76 3 76 2 78 C1.34 78 0.68 78 0 78 C0 52.26 0 26.52 0 0 Z " fill="#E8C85A" transform="translate(272,460)"/>
<path d="M0 0 C4.65882544 2.09088898 7.53673348 5.3351296 11 9 C11.65097656 9.64582031 12.30195313 10.29164063 12.97265625 10.95703125 C17.42124123 15.58830966 18.88481051 18.54938869 19 25 C13.03739811 20.17917294 8.03320206 14.77505724 3 9 C-0.21422633 9.28751107 -1.09344717 10.09917158 -3.359375 12.50390625 C-4.54273438 14.01791016 -4.54273438 14.01791016 -5.75 15.5625 C-6.54921875 16.57441406 -7.3484375 17.58632813 -8.171875 18.62890625 C-8.77515625 19.41136719 -9.3784375 20.19382812 -10 21 C-10.33 20.01 -10.66 19.02 -11 18 C-10.34 18 -9.68 18 -9 18 C-9.185625 16.88625 -9.37125 15.7725 -9.5625 14.625 C-9.63719692 9.99379069 -7.5409219 7.8407311 -4.5 4.5 C-3.01840285 2.98182021 -1.52399533 1.47561453 0 0 Z " fill="#23281B" transform="translate(326,473)"/>
<path d="M0 0 C0.99 1.32 1.98 2.64 3 4 C1.45872649 7.71268094 -0.80843234 9.98115698 -3.6875 12.75 C-8.6599994 17.62233394 -13.26384476 22.68249076 -17.69140625 28.05078125 C-18.22636719 28.69402344 -18.76132812 29.33726562 -19.3125 30 C-19.78300781 30.5775 -20.25351562 31.155 -20.73828125 31.75 C-22 33 -22 33 -24 33 C-24 32.34 -24 31.68 -24 31 C-25.32 30.67 -26.64 30.34 -28 30 C-27.14277344 29.154375 -26.28554688 28.30875 -25.40234375 27.4375 C-19.37335052 21.46582497 -13.49695585 15.47010114 -8 9 C-6.52443514 7.33014368 -5.0452035 5.663521 -3.5625 4 C-2.88316406 3.236875 -2.20382812 2.47375 -1.50390625 1.6875 C-1.00761719 1.130625 -0.51132812 0.57375 0 0 Z " fill="#1A2218" transform="translate(431,489)"/>
<path d="M0 0 C0.33 0.99 0.66 1.98 1 3 C1.66 3 2.32 3 3 3 C2.51036462 7.32337622 -0.28813771 9.95316564 -3.0625 13.0625 C-8.07396423 18.81488223 -12.62449646 24.74390754 -17 31 C-17.28875 30.360625 -17.5775 29.72125 -17.875 29.0625 C-18.82823451 26.84793921 -18.82823451 26.84793921 -21 26 C-14.06325429 17.28191476 -7.03327358 8.6402349 0 0 Z " fill="#1D2319" transform="translate(297,508)"/>
<path d="M0 0 C1.60725635 3.21451269 1.05748185 6.43612536 1 10 C4.465 9.505 4.465 9.505 8 9 C6.49631918 12.00736164 4.23800706 12.40016389 1.1875 13.6875 C0.12917969 14.14511719 -0.92914063 14.60273437 -2.01953125 15.07421875 C-4.98366296 15.99492545 -6.17496557 16.12864571 -9 15 C-8.01 15 -7.02 15 -6 15 C-6 14.34 -6 13.68 -6 13 C-5.34 13 -4.68 13 -4 13 C-4.185625 12.360625 -4.37125 11.72125 -4.5625 11.0625 C-4.706875 10.381875 -4.85125 9.70125 -5 9 C-4.67 8.67 -4.34 8.34 -4 8 C-8.29 7.67 -12.58 7.34 -17 7 C-17 6.34 -17 5.68 -17 5 C-12.38 5 -7.76 5 -3 5 C-2.34 3.68 -1.68 2.36 -1 1 C-0.67 0.67 -0.34 0.34 0 0 Z " fill="#0C2E46" transform="translate(399,598)"/>
<path d="M0 0 C13.86 0 27.72 0 42 0 C41.67 0.66 41.34 1.32 41 2 C32.585 2.495 32.585 2.495 24 3 C24 3.66 24 4.32 24 5 C21.69 5 19.38 5 17 5 C17 4.34 17 3.68 17 3 C11.39 2.67 5.78 2.34 0 2 C0 1.34 0 0.68 0 0 Z " fill="#0A2C44" transform="translate(336,635)"/>
<path d="M0 0 C-1.19625 0.474375 -2.3925 0.94875 -3.625 1.4375 C-4.29789062 1.70433594 -4.97078125 1.97117187 -5.6640625 2.24609375 C-12.91567118 4.58649588 -20.47471957 4.1861258 -28.00244141 4.18530273 C-30.22968931 4.18748014 -32.45643381 4.20564329 -34.68359375 4.22460938 C-42.30937083 4.25371295 -49.58456598 3.99881507 -57 2 C-53.83298188 1.01826546 -51.38644961 1.01936075 -48.10546875 1.40234375 C-41.51399196 2.08527906 -34.93325307 2.33573642 -28.3125 2.5625 C-26.52682617 2.62727539 -26.52682617 2.62727539 -24.70507812 2.69335938 C-21.80346966 2.79823679 -18.90179365 2.90040196 -16 3 C-16 2.34 -16 1.68 -16 1 C-13.63780647 -0.18109676 -11.74989148 -0.35238516 -9.125 -0.625 C-7.82949219 -0.76808594 -7.82949219 -0.76808594 -6.5078125 -0.9140625 C-4.09358507 -0.99679303 -2.29257465 -0.71443024 0 0 Z " fill="#084770" transform="translate(390,615)"/>
<path d="M0 0 C1.32 0.66 2.64 1.32 4 2 C2.36238901 6.40240876 -0.98218356 9.05352961 -4.375 12.125 C-4.9525 12.66253906 -5.53 13.20007813 -6.125 13.75390625 C-8.91855308 16.31147426 -11.43193839 18.57629069 -15 20 C-13.287474 15.8512019 -10.41116967 12.7812078 -7.5 9.4375 C-3.55102588 4.87578359 -3.55102588 4.87578359 0 0 Z " fill="#3CBA5C" transform="translate(276,542)"/>
<path d="M0 0 C0.33 0.66 0.66 1.32 1 2 C0.0625 4.125 0.0625 4.125 -1 6 C-1.66 6 -2.32 6 -3 6 C-3.25523437 6.70511719 -3.51046875 7.41023437 -3.7734375 8.13671875 C-5.11550522 11.2696348 -6.76729867 13.95714425 -8.625 16.8125 C-9.25664062 17.78832031 -9.88828125 18.76414062 -10.5390625 19.76953125 C-11.02117187 20.50558594 -11.50328125 21.24164062 -12 22 C-12.66 21.01 -13.32 20.02 -14 19 C-14.66 18.67 -15.32 18.34 -16 18 C-15.26394531 17.20335937 -14.52789062 16.40671875 -13.76953125 15.5859375 C-12.78378001 14.5156933 -11.79810712 13.44537693 -10.8125 12.375 C-10.32974609 11.85292969 -9.84699219 11.33085938 -9.34960938 10.79296875 C-6.11982129 7.28138707 -3.02821458 3.68700349 0 0 Z " fill="#0796E6" transform="translate(448,520)"/>
<path d="M0 0 C2.97922593 -0.02683987 5.95821295 -0.04676037 8.9375 -0.0625 C9.78763672 -0.07087891 10.63777344 -0.07925781 11.51367188 -0.08789062 C12.32255859 -0.09111328 13.13144531 -0.09433594 13.96484375 -0.09765625 C14.7137085 -0.10289307 15.46257324 -0.10812988 16.23413086 -0.11352539 C18 0 18 0 19 1 C19.01665074 2.56423432 18.96308892 4.12935006 18.87890625 5.69140625 C18.83056641 6.63564453 18.78222656 7.57988281 18.73242188 8.55273438 C18.67634766 9.54595703 18.62027344 10.53917969 18.5625 11.5625 C18.51029297 12.55958984 18.45808594 13.55667969 18.40429688 14.58398438 C18.2741763 17.05627522 18.13919819 19.5282063 18 22 C17.67 22 17.34 22 17 22 C17 15.4 17 8.8 17 2 C11.39 2 5.78 2 0 2 C0 1.34 0 0.68 0 0 Z " fill="#062B46" transform="translate(464,509)"/>
<path d="M0 0 C0.99 0.33 1.98 0.66 3 1 C-1.76008307 6.5930976 -6.74595676 11.86877855 -12 17 C-12.99 16.67 -13.98 16.34 -15 16 C-14.36384766 15.38125 -14.36384766 15.38125 -13.71484375 14.75 C-9.75129367 10.84742761 -6.01204355 6.81667838 -2.3828125 2.6015625 C-1.61429517 1.71147181 -0.83152881 0.83152881 0 0 Z " fill="#15291C" transform="translate(470,478)"/>
<path d="M0 0 C2.56833721 1.18538641 4.7231652 2.5017881 7.0625 4.125 C9.84064436 6.26901773 9.84064436 6.26901773 13 6 C13.33 6.99 13.66 7.98 14 9 C13.34 9 12.68 9 12 9 C11.67 10.32 11.34 11.64 11 13 C9.16052663 11.21427748 7.32842259 9.42197551 5.5 7.625 C4.71302734 6.86316406 4.71302734 6.86316406 3.91015625 6.0859375 C2.56846819 4.76167396 1.28004185 3.38394135 0 2 C0 1.34 0 0.68 0 0 Z " fill="#18291B" transform="translate(351,503)"/>
<path d="M0 0 C0.33 1.32 0.66 2.64 1 4 C1.66 4.66 2.32 5.32 3 6 C1.35 8.31 -0.3 10.62 -2 13 C-2.28875 12.360625 -2.5775 11.72125 -2.875 11.0625 C-3.82823451 8.84793921 -3.82823451 8.84793921 -6 8 C-4.02 5.36 -2.04 2.72 0 0 Z " fill="#25291C" transform="translate(282,526)"/>
<path d="M0 0 C2.375 -0.125 2.375 -0.125 5 0 C8.00617269 3.00617269 7.59585316 5.82381598 8 10 C6.84481082 9.09515208 5.70114594 8.1755794 4.5625 7.25 C3.60537109 6.48429687 3.60537109 6.48429687 2.62890625 5.703125 C0.81189446 3.80332371 0.39576803 2.56413092 0 0 Z " fill="#152B1D" transform="translate(337,488)"/>
<path d="M0 0 C0.33 0.99 0.66 1.98 1 3 C-0.21929728 4.30098717 -1.45092452 5.59042437 -2.6875 6.875 C-3.37199219 7.59429688 -4.05648438 8.31359375 -4.76171875 9.0546875 C-7.09591291 11.08335887 -9.08467634 12.02992733 -12 13 C-8.19524578 8.43969176 -4.25030379 4.14910608 0 0 Z " fill="#0880C5" transform="translate(428,542)"/>
<path d="M0 0 C0.33 0.66 0.66 1.32 1 2 C0.0625 4.125 0.0625 4.125 -1 6 C-1.66 6 -2.32 6 -3 6 C-3.28875 6.78375 -3.5775 7.5675 -3.875 8.375 C-5 11 -5 11 -7 13 C-7.99 12.34 -8.98 11.68 -10 11 C-6.7 7.37 -3.4 3.74 0 0 Z " fill="#1078B4" transform="translate(448,520)"/>
<path d="M0 0 C0 3.50935186 -0.37542727 6.56484998 -1 10 C-2.65 9.01 -4.3 8.02 -6 7 C-5.37162381 3.35541809 -4.14650034 0 0 0 Z " fill="#0C2A3F" transform="translate(286,581)"/>
<path d="M0 0 C-2.0762657 1.03513247 -4.16131479 2.05266211 -6.25 3.0625 C-7.41015625 3.63097656 -8.5703125 4.19945312 -9.765625 4.78515625 C-12.90644333 5.96485975 -13.99353048 6.30230734 -17 5 C-16.01 5 -15.02 5 -14 5 C-14 4.34 -14 3.68 -14 3 C-13.34 3 -12.68 3 -12 3 C-12 2.34 -12 1.68 -12 1 C-10.37681021 0.63762737 -8.7513642 0.28534843 -7.125 -0.0625 C-6.22007812 -0.25972656 -5.31515625 -0.45695313 -4.3828125 -0.66015625 C-2 -1 -2 -1 0 0 Z " fill="#0C486D" transform="translate(407,608)"/>
<path d="M0 0 C0.33 0.99 0.66 1.98 1 3 C-0.07356677 4.15498897 -1.15929788 5.29867867 -2.25 6.4375 C-2.85328125 7.07558594 -3.4565625 7.71367188 -4.078125 8.37109375 C-6.10048016 10.08516306 -7.41270605 10.59358878 -10 11 C-6.79239749 7.19364503 -3.59253891 3.45436433 0 0 Z " fill="#0984CC" transform="translate(413,558)"/>
<path d="M0 0 C0.33 0.99 0.66 1.98 1 3 C0.09972412 4.03531726 -0.82093035 5.05294165 -1.75 6.0625 C-2.51570313 6.91521484 -2.51570313 6.91521484 -3.296875 7.78515625 C-4.13992188 8.38650391 -4.13992188 8.38650391 -5 9 C-6.32 8.67 -7.64 8.34 -9 8 C-6.03 5.36 -3.06 2.72 0 0 Z " fill="#14281C" transform="translate(298,529)"/>
<path d="M0 0 C0.66 0.33 1.32 0.66 2 1 C-1.3 4.3 -4.6 7.6 -8 11 C-8.66 10.67 -9.32 10.34 -10 10 C-3.84965831 2.51708428 -3.84965831 2.51708428 0 0 Z " fill="#D6D6D7" transform="translate(577,471)"/>
<path d="M0 0 C0.66 0.33 1.32 0.66 2 1 C1.50628906 1.4125 1.01257812 1.825 0.50390625 2.25 C-2.99558463 5.40447065 -5.38764441 7.61767206 -5.9375 12.4375 C-5.958125 13.613125 -5.97875 14.78875 -6 16 C-6.33 16 -6.66 16 -7 16 C-7.76140684 8.38593156 -7.76140684 8.38593156 -5.95703125 5.1015625 C-4.17646218 2.96070232 -2.50485776 1.25242888 0 0 Z " fill="#BDBDBE" transform="translate(1141,461)"/>
<path d="M0 0 C1.48199902 0.44909061 2.96055236 0.90956564 4.4375 1.375 C5.26121094 1.63023437 6.08492188 1.88546875 6.93359375 2.1484375 C9 3 9 3 10 5 C8.5629191 5.05422947 7.12524538 5.09289723 5.6875 5.125 C4.88699219 5.14820313 4.08648437 5.17140625 3.26171875 5.1953125 C1 5 1 5 -2 3 C-1.34 2.01 -0.68 1.02 0 0 Z " fill="#102535" transform="translate(292,619)"/>
<path d="M0 0 C0.5534764 2.07553648 1 3.84365964 1 6 C-0.75 7.2890625 -0.75 7.2890625 -3 8.625 C-3.7425 9.07101562 -4.485 9.51703125 -5.25 9.9765625 C-5.8275 10.31429687 -6.405 10.65203125 -7 11 C-5.67855892 8.20891884 -4.19617639 5.74213611 -2.375 3.25 C-1.92898438 2.63640625 -1.48296875 2.0228125 -1.0234375 1.390625 C-0.68570312 0.93171875 -0.34796875 0.4728125 0 0 Z " fill="#0C344E" transform="translate(463,577)"/>
<path d="M0 0 C0.66 0.33 1.32 0.66 2 1 C-0.64 4.3 -3.28 7.6 -6 11 C-7.32 10.34 -8.64 9.68 -10 9 C-9.44570313 8.51789062 -8.89140625 8.03578125 -8.3203125 7.5390625 C-7.59585937 6.90742187 -6.87140625 6.27578125 -6.125 5.625 C-5.40570313 4.99851562 -4.68640625 4.37203125 -3.9453125 3.7265625 C-2.5923402 2.52573166 -1.2791655 1.2791655 0 0 Z " fill="#0B2F49" transform="translate(302,565)"/>
<path d="M0 0 C1.24546405 2.49092811 0.7767578 3.41080733 0 6 C-0.66 6 -1.32 6 -2 6 C-2.0825 6.61875 -2.165 7.2375 -2.25 7.875 C-3 10 -3 10 -5.0625 11.25 C-5.701875 11.4975 -6.34125 11.745 -7 12 C-5.44298069 7.32894208 -2.91552627 3.91294315 0 0 Z " fill="#0A3754" transform="translate(431,549)"/>
<path d="M0 0 C0.66 0.33 1.32 0.66 2 1 C-1.96 4.96 -5.92 8.92 -10 13 C-10 8.83248505 -7.76127698 6.85829482 -5 4 C-3.36927384 2.62294236 -1.7133562 1.27277889 0 0 Z " fill="#D8D9D9" transform="translate(747,504)"/>
<path d="M0 0 C0.99 0.33 1.98 0.66 3 1 C0.14723863 3.93200474 -2.65079784 6.64315404 -6 9 C-6.66 8.67 -7.32 8.34 -8 8 C-5.33333333 5.33333333 -2.66666667 2.66666667 0 0 Z " fill="#0890DD" transform="translate(325,522)"/>
<path d="M0 0 C4.56756196 0.8783773 6.52067674 1.385483 9.4375 5.125 C10.2109375 6.548125 10.2109375 6.548125 11 8 C6.99698968 6.23867546 3.3971023 3.73867517 0 1 C0 0.67 0 0.34 0 0 Z " fill="#0C3652" transform="translate(288,594)"/>
<path d="M0 0 C0.66 0.66 1.32 1.32 2 2 C1.01 3.32 0.02 4.64 -1 6 C-2.32 5.67 -3.64 5.34 -5 5 C-4.67 3.68 -4.34 2.36 -4 1 C-2.125 0.375 -2.125 0.375 0 0 Z " fill="#111B18" transform="translate(287,525)"/>
<path d="M0 0 C2 1 2 1 3 3 C-2.75 7 -2.75 7 -5 7 C-3.70700306 4.11562221 -2.34058637 2.12780579 0 0 Z M3 1 C5 2 5 2 5 2 Z " fill="#37373B" transform="translate(1253,518)"/>
<path d="M0 0 C0 0.66 0 1.32 0 2 C-5.24385089 3.7479503 -9.47322267 4.19392201 -15 4 C-15 3.67 -15 3.34 -15 3 C-13.25183142 2.49363393 -11.50137737 1.99515381 -9.75 1.5 C-8.77546875 1.2215625 -7.8009375 0.943125 -6.796875 0.65625 C-4 0 -4 0 0 0 Z " fill="#073D62" transform="translate(394,631)"/>
<path d="M0 0 C0.33 0.66 0.66 1.32 1 2 C-0.65909182 6.10406925 -2.21704034 8.65195608 -6 11 C-5.55530671 5.96014269 -3.28656638 3.62365012 0 0 Z " fill="#3BBA59" transform="translate(305,506)"/>
<path d="M0 0 C-2.52480693 2.52480693 -4.13823034 2.55738633 -7.625 3.125 C-8.62789062 3.29257812 -9.63078125 3.46015625 -10.6640625 3.6328125 C-11.43492188 3.75398437 -12.20578125 3.87515625 -13 4 C-11.72807637 1.45615274 -10.80051531 1.30631844 -8.1875 0.3125 C-7.50042969 0.04050781 -6.81335937 -0.23148438 -6.10546875 -0.51171875 C-3.70623504 -1.06812731 -2.3105636 -0.77364938 0 0 Z " fill="#454548" transform="translate(1292,585)"/>
<path d="M0 0 C0.8125 1.6875 0.8125 1.6875 1 4 C-1.3125 6.75 -1.3125 6.75 -4 9 C-4.66 9 -5.32 9 -6 9 C-4.47291037 5.56404834 -2.40072955 2.88087546 0 0 Z " fill="#399150" transform="translate(267,553)"/>
<path d="M0 0 C1.98 0.99 1.98 0.99 4 2 C4 3.98 4 5.96 4 8 C2 6.8125 2 6.8125 0 5 C-0.25 2.3125 -0.25 2.3125 0 0 Z " fill="#111916" transform="translate(379,528)"/>
<path d="M0 0 C1.04449911 3.13349732 0.93423645 3.98968256 0 7 C-1.65 7 -3.3 7 -5 7 C-3.35 4.69 -1.7 2.38 0 0 Z " fill="#2F2A1C" transform="translate(288,519)"/>
<path d="M0 0 C0.33 0 0.66 0 1 0 C1.3125 2.6875 1.3125 2.6875 1 6 C-1.5 8.875 -1.5 8.875 -4 11 C-4 10.01 -4 9.02 -4 8 C-3.34 8 -2.68 8 -2 8 C-1.7834375 6.576875 -1.7834375 6.576875 -1.5625 5.125 C-1 2 -1 2 0 0 Z " fill="#14261D" transform="translate(319,483)"/>
<path d="M0 0 C0.33 1.32 0.66 2.64 1 4 C-0.9375 6.25 -0.9375 6.25 -3 8 C-3.99 7.67 -4.98 7.34 -6 7 C-4.02 4.69 -2.04 2.38 0 0 Z " fill="#2B2C2F" transform="translate(1017,500)"/>
<path d="M0 0 C-0.33 1.32 -0.66 2.64 -1 4 C-1.33 3.34 -1.66 2.68 -2 2 C-4.58605332 1.5316735 -4.58605332 1.5316735 -7.5625 1.375 C-9.08037109 1.26285156 -9.08037109 1.26285156 -10.62890625 1.1484375 C-11.80259766 1.07496094 -11.80259766 1.07496094 -13 1 C-13 0.67 -13 0.34 -13 0 C-11.39679026 -0.19551338 -9.79237014 -0.38111983 -8.1875 -0.5625 C-7.29417969 -0.66691406 -6.40085937 -0.77132812 -5.48046875 -0.87890625 C-3 -1 -3 -1 0 0 Z " fill="#919293" transform="translate(1372,568)"/>
<path d="M0 0 C0 3.90838866 -1.50567876 5.11594107 -4 8 C-4.99 7.67 -5.98 7.34 -7 7 C-4.69 4.69 -2.38 2.38 0 0 Z " fill="#15321F" transform="translate(448,502)"/>
<path d="M0 0 C0.99 0.33 1.98 0.66 3 1 C0.69 3.31 -1.62 5.62 -4 8 C-4.66 7.67 -5.32 7.34 -6 7 C-4.02 4.69 -2.04 2.38 0 0 Z " fill="#DBDBDC" transform="translate(990,499)"/>
<path d="M0 0 C4.29 0.66 8.58 1.32 13 2 C13 2.33 13 2.66 13 3 C11.20909747 3.19466332 9.41723495 3.38051213 7.625 3.5625 C6.12839844 3.71912109 6.12839844 3.71912109 4.6015625 3.87890625 C2 4 2 4 0 3 C0 2.01 0 1.02 0 0 Z " fill="#58595C" transform="translate(1140,484)"/>
<path d="M0 0 C0.66 0 1.32 0 2 0 C2.33 0.66 2.66 1.32 3 2 C4.32 2 5.64 2 7 2 C6.67 3.32 6.34 4.64 6 6 C3.37812506 4.95125002 2.20628639 4.35068687 0.75 1.875 C0.5025 1.25625 0.255 0.6375 0 0 Z " fill="#121A13" transform="translate(328,479)"/>
<path d="M0 0 C0.75 1.75 0.75 1.75 1 4 C-0.9375 6.25 -0.9375 6.25 -3 8 C-3.33 7.34 -3.66 6.68 -4 6 C-2.68 4.02 -1.36 2.04 0 0 Z " fill="#0B344D" transform="translate(436,541)"/>
<path d="M0 0 C1 2 1 2 0.25 4.5625 C-1 7 -1 7 -4 8 C-2.87548273 5.0280615 -1.77706209 2.66559313 0 0 Z " fill="#0B3553" transform="translate(441,533)"/>
<path d="M0 0 C0.99 1.32 1.98 2.64 3 4 C2.34 5.32 1.68 6.64 1 8 C0.87625 7.360625 0.7525 6.72125 0.625 6.0625 C0.315625 5.0415625 0.315625 5.0415625 0 4 C-0.66 3.67 -1.32 3.34 -2 3 C-1.34 2.01 -0.68 1.02 0 0 Z " fill="#26321D" transform="translate(431,489)"/>
</svg>
